<?xml version="1.0" encoding="utf-8"?>
<!-- Generator: Adobe Illustrator 25.1.0, SVG Export Plug-In . SVG Version: 6.00 Build 0)  -->
<svg version="1.1" id="레이어_1" xmlns="http://www.w3.org/2000/svg" xmlns:xlink="http://www.w3.org/1999/xlink" x="0px"
	 y="0px" viewBox="0 0 18 18" style="enable-background:new 0 0 18 18;" xml:space="preserve">
<style type="text/css">
	.st0{fill:none;}
	.st1{fill:#FFFFFF;}
</style>
<path class="st0" d="M0,0h18v18H0V0z"/>
<g>
	<path class="st1" d="M2.3,9c0-0.9,0-1.8,0-2.6c0-2.2,1.6-3.9,3.7-4.1c0.1,0,0.3,0,0.4,0c1.8,0,3.6,0,5.4,0c2.2,0,4,1.8,4.1,4
		c0,1.9,0,3.7,0,5.6c0,2.2-1.8,4-4,4c-1.8,0-3.6,0-5.5,0c-2.1,0-3.8-1.7-4-3.7c0-0.1,0-0.3,0-0.4C2.3,10.7,2.3,9.9,2.3,9z M3.5,9
		c0,0.9,0,1.8,0,2.7c0,1.5,1.2,2.8,2.8,2.8c1.8,0,3.6,0,5.4,0c1.5,0,2.8-1.2,2.8-2.8c0-1.8,0-3.6,0-5.4c0-1.5-1.2-2.8-2.8-2.8
		c-1.8,0-3.6,0-5.4,0c-1.6,0-2.8,1.2-2.8,2.8C3.5,7.2,3.5,8.1,3.5,9z"/>
	<path class="st1" d="M9.1,5.7c1.8,0,3.3,1.5,3.3,3.3c0,1.8-1.5,3.3-3.3,3.3c-1.8,0-3.3-1.5-3.3-3.3C5.7,7.2,7.2,5.7,9.1,5.7z
		 M6.9,9c0,1.2,1,2.1,2.1,2.1c1.2,0,2.1-1,2.1-2.1c0-1.2-1-2.1-2.1-2.1C7.9,6.9,6.9,7.8,6.9,9z"/>
	<path class="st1" d="M12.6,6.2c-0.4,0-0.8-0.4-0.8-0.8c0-0.4,0.4-0.8,0.8-0.8c0.4,0,0.8,0.4,0.8,0.8C13.4,5.9,13,6.2,12.6,6.2z"/>
</g>
</svg>
